<mxfile host="app.diagrams.net" agent="Mozilla/5.0 (Windows NT 10.0; Win64; x64) AppleWebKit/537.36 (KHTML, like Gecko) Chrome/135.0.0.0 Safari/537.36" version="26.2.13">
  <diagram name="페이지-1" id="MN5EwI8C19eY58HCWF1L">
    <mxGraphModel dx="835" dy="450" grid="1" gridSize="10" guides="1" tooltips="1" connect="1" arrows="1" fold="1" page="1" pageScale="1" pageWidth="827" pageHeight="1169" math="0" shadow="0">
      <root>
        <mxCell id="0" />
        <mxCell id="1" parent="0" />
        <mxCell id="iIl0eZnWdM4VAxszSEOy-1" value="" style="ellipse;whiteSpace=wrap;html=1;" parent="1" vertex="1">
          <mxGeometry x="130" y="120" width="120" height="80" as="geometry" />
        </mxCell>
        <mxCell id="iIl0eZnWdM4VAxszSEOy-6" style="edgeStyle=orthogonalEdgeStyle;rounded=0;orthogonalLoop=1;jettySize=auto;html=1;exitX=0.75;exitY=0.1;exitDx=0;exitDy=0;exitPerimeter=0;" parent="1" source="iIl0eZnWdM4VAxszSEOy-5" edge="1">
          <mxGeometry relative="1" as="geometry">
            <mxPoint x="440" y="296.0588235294117" as="targetPoint" />
          </mxGeometry>
        </mxCell>
        <mxCell id="iIl0eZnWdM4VAxszSEOy-5" value="Actor" style="shape=umlActor;verticalLabelPosition=bottom;verticalAlign=top;html=1;outlineConnect=0;" parent="1" vertex="1">
          <mxGeometry x="350" y="270" width="30" height="60" as="geometry" />
        </mxCell>
        <mxCell id="KieflmNJ7JjYXTiCyG3P-1" value="사용자" style="shape=umlActor;verticalLabelPosition=bottom;verticalAlign=top;html=1;outlineConnect=0;" vertex="1" parent="1">
          <mxGeometry x="80" y="430" width="30" height="60" as="geometry" />
        </mxCell>
        <mxCell id="KieflmNJ7JjYXTiCyG3P-4" value="로그인" style="ellipse;whiteSpace=wrap;html=1;" vertex="1" parent="1">
          <mxGeometry x="170" y="440" width="90" height="40" as="geometry" />
        </mxCell>
        <mxCell id="KieflmNJ7JjYXTiCyG3P-5" value="사용자인증" style="ellipse;whiteSpace=wrap;html=1;" vertex="1" parent="1">
          <mxGeometry x="280" y="430" width="90" height="40" as="geometry" />
        </mxCell>
        <mxCell id="KieflmNJ7JjYXTiCyG3P-6" value="히스토리 조회" style="ellipse;whiteSpace=wrap;html=1;" vertex="1" parent="1">
          <mxGeometry x="260" y="500" width="90" height="40" as="geometry" />
        </mxCell>
        <mxCell id="KieflmNJ7JjYXTiCyG3P-7" value="ai질문" style="ellipse;whiteSpace=wrap;html=1;" vertex="1" parent="1">
          <mxGeometry x="370" y="470" width="90" height="40" as="geometry" />
        </mxCell>
      </root>
    </mxGraphModel>
  </diagram>
</mxfile>
